<svg viewBox="0 0 900 900" xmlns="http://www.w3.org/2000/svg">
  <!-- Background -->
  <rect width="900" height="900" fill="#f5f5f5"/>

  <!-- Header -->
  <rect x="0" y="0" width="900" height="60" fill="#333"/>
  <rect x="20" y="10" width="80" height="40" fill="#ddd" stroke="#aaa"/>
  <text x="60" y="35" text-anchor="middle" fill="#fff" font-size="14">LOGO</text>
  <g fill="none" stroke="#fff" stroke-width="1">
    <rect x="120" y="15" width="80" height="30"/>
    <text x="160" y="35" fill="#fff" font-size="14" text-anchor="middle">Home</text>
  </g>
  <g fill="none" stroke="#fff" stroke-width="1">
    <rect x="650" y="15" width="90" height="30"/>
    <text x="695" y="35" fill="#fff" font-size="14" text-anchor="middle">Login</text>
    <rect x="760" y="15" width="90" height="30"/>
    <text x="805" y="35" fill="#fff" font-size="14" text-anchor="middle">Register</text>
  </g>

  <!-- Event Header -->
  <text x="450" y="100" text-anchor="middle" fill="#333" font-size="24">Event Title</text>
  <text x="450" y="130" text-anchor="middle" fill="#666" font-size="14">May 10, 2025 | 7:00 PM | City Venue</text>
  <text x="450" y="155" text-anchor="middle" fill="#999" font-size="12">An exciting evening of music and fun</text>

  <!-- Event Description -->
  <rect x="50" y="180" width="800" height="100" fill="#fff" stroke="#ccc"/>
  <text x="60" y="200" fill="#333" font-size="14">Event Description:</text>
  <text x="60" y="220" fill="#666" font-size="12">
    Lorem ipsum dolor sit amet, consectetur adipiscing elit. Sed do eiusmod tempor incididunt ut labore et dolore magna aliqua.
  </text>

  <!-- Seating Plan -->
  <text x="450" y="320" text-anchor="middle" fill="#333" font-size="16">Seating Plan</text>
  <rect x="50" y="330" width="800" height="350" fill="#fff" stroke="#ccc"/>
  <rect x="60" y="350" width="50" height="40" fill="#8BC34A" stroke="#999"/>
  <rect x="125" y="350" width="50" height="40" fill="#8BC34A" stroke="#999"/>
  <rect x="190" y="350" width="50" height="40" fill="#8BC34A" stroke="#999"/>
  <rect x="255" y="350" width="50" height="40" fill="#8BC34A" stroke="#999"/>
  <rect x="320" y="350" width="50" height="40" fill="#8BC34A" stroke="#999"/>
  <rect x="385" y="350" width="50" height="40" fill="#8BC34A" stroke="#999"/>
  <rect x="450" y="350" width="50" height="40" fill="#8BC34A" stroke="#999"/>
  <rect x="515" y="350" width="50" height="40" fill="#8BC34A" stroke="#999"/>
  <rect x="580" y="350" width="50" height="40" fill="#8BC34A" stroke="#999"/>
  <rect x="645" y="350" width="50" height="40" fill="#8BC34A" stroke="#999"/>
  <rect x="710" y="350" width="50" height="40" fill="#8BC34A" stroke="#999"/>
  <rect x="775" y="350" width="50" height="40" fill="#8BC34A" stroke="#999"/>

  <!-- Row 2 -->
  <rect x="60" y="405" width="50" height="40" fill="#8BC34A" stroke="#999"/>
  <rect x="125" y="405" width="50" height="40" fill="#FFEB3B" stroke="#999"/>
  <rect x="190" y="405" width="50" height="40" fill="#F44336" stroke="#999"/>
  <rect x="255" y="405" width="50" height="40" fill="#8BC34A" stroke="#999"/>
  <rect x="320" y="405" width="50" height="40" fill="#8BC34A" stroke="#999"/>
  <rect x="385" y="405" width="50" height="40" fill="#FFEB3B" stroke="#999"/>
  <rect x="450" y="405" width="50" height="40" fill="#F44336" stroke="#999"/>
  <rect x="515" y="405" width="50" height="40" fill="#8BC34A" stroke="#999"/>
  <rect x="580" y="405" width="50" height="40" fill="#8BC34A" stroke="#999"/>
  <rect x="645" y="405" width="50" height="40" fill="#FFEB3B" stroke="#999"/>
  <rect x="710" y="405" width="50" height="40" fill="#F44336" stroke="#999"/>
  <rect x="775" y="405" width="50" height="40" fill="#8BC34A" stroke="#999"/>
  <!-- Legend -->
  <rect x="50" y="700" width="300" height="80" fill="#fff" stroke="#ccc"/>
  <text x="65" y="725" fill="#333" font-size="14">Legend:</text>
  <rect x="65" y="740" width="20" height="20" fill="#8BC34A" stroke="#999"/>
  <text x="95" y="755" fill="#333" font-size="12">Available ($50)</text>
  <rect x="65" y="770" width="20" height="20" fill="#FFEB3B" stroke="#999"/>
  <text x="95" y="785" fill="#333" font-size="12">Selected ($50)</text>
  <rect x="200" y="740" width="20" height="20" fill="#F44336" stroke="#999"/>
  <text x="230" y="755" fill="#333" font-size="12">Reserved ($50)</text>

  <!-- Purchase Panel -->
  <rect x="0" y="800" width="900" height="100" fill="#fff" stroke="#ccc"/>
  <text x="20" y="835" fill="#333" font-size="16">Your Selection</text>
  <rect x="20" y="845" width="600" height="40" fill="#f9f9f9" stroke="#ccc"/>
  <text x="30" y="873" fill="#666" font-size="12">Seat A1 - $50, Seat B3 - $50</text>
  <text x="650" y="835" fill="#333" font-size="14">Total: $100</text>
  <rect x="750" y="845" width="120" height="40" rx="5" fill="#4CAF50"/>
  <text x="810" y="872" fill="#fff" font-size="12" text-anchor="middle">Proceed to Checkout</text>
</svg>
