<svg viewBox="0 0 800 600" xmlns="http://www.w3.org/2000/svg"> <!-- Background --> <rect width="800" height="600" fill="#f5f5f5"/> <!-- Header --> <rect x="0" y="0" width="800" height="70" fill="#333" stroke="#000"/> <rect x="20" y="15" width="100" height="40" fill="none" stroke="#fff" stroke-width="2"/> <text x="70" y="40" font-family="Arial" font-size="14" text-anchor="middle" fill="#fff">LOGO</text> <!-- Navigation --> <rect x="150" y="15" width="100" height="40" fill="none" stroke="#fff" stroke-width="2"/> <text x="200" y="40" font-family="Arial" font-size="14" text-anchor="middle" fill="#fff">Home</text> <!-- Auth buttons --> <rect x="570" y="15" width="100" height="40" fill="none" stroke="#fff" stroke-width="2"/> <text x="620" y="40" font-family="Arial" font-size="14" text-anchor="middle" fill="#fff">Register</text> <rect x="680" y="15" width="100" height="40" fill="none" stroke="#fff" stroke-width="2"/> <text x="730" y="40" font-family="Arial" font-size="14" text-anchor="middle" fill="#fff">Login</text> <!-- Left Sidebar --> <rect x="0" y="70" width="160" height="530" fill="#f0f0f0" stroke="#ccc"/> <rect x="10" y="80" width="140" height="40" fill="#ddd" stroke="#999"/> <text x="80" y="105" font-family="Arial" font-size="16" text-anchor="middle" fill="#333">Categories</text> <!-- Category 1 --> <rect x="20" y="130" width="120" height="30" fill="#e6e6e6" stroke="#999"/> <text x="80" y="150" font-family="Arial" font-size="14" text-anchor="middle" fill="#333">Category 1</text>  <!-- Main Content Area --> <rect x="160" y="70" width="640" height="530" fill="#fff" stroke="#ccc"/> <!-- Search/Filter Bar --> <rect x="170" y="80" width="620" height="50" fill="#f9f9f9" stroke="#ccc"/> <rect x="180" y="90" width="400" height="30" fill="#fff" stroke="#999"/> <text x="200" y="110" font-family="Arial" font-size="14" fill="#999">Search events...</text> <rect x="590" y="90" width="90" height="30" fill="#fff" stroke="#999"/> <text x="635" y="110" font-family="Arial" font-size="14" text-anchor="middle" fill="#333">Filters</text> <!-- Event Cards - First Row --> <rect x="180" y="140" width="190" height="220" fill="#fff" stroke="#ccc"/> <rect x="190" y="150" width="170" height="100" fill="#eee" stroke="#ddd"/> <text x="275" y="205" font-family="Arial" font-size="14" text-anchor="middle" fill="#999">Event Image</text> <text x="275" y="280" font-family="Arial" font-size="16" text-anchor="middle" font-weight="bold" fill="#333">Event Title</text> <text x="275" y="305" font-family="Arial" font-size="12" text-anchor="middle" fill="#666">April 30, 2025 • City</text> <rect x="225" y="320" width="100" height="30" fill="#4CAF50" rx="5"/> <text x="275" y="340" font-family="Arial" font-size="12" text-anchor="middle" fill="#fff">View Details</text> <rect x="385" y="140" width="190" height="220" fill="#fff" stroke="#ccc"/> <rect x="395" y="150" width="170" height="100" fill="#eee" stroke="#ddd"/> <text x="480" y="205" font-family="Arial" font-size="14" text-anchor="middle" fill="#999">Event Image</text> <text x="480" y="280" font-family="Arial" font-size="16" text-anchor="middle" font-weight="bold" fill="#333">Event Title</text> <text x="480" y="305" font-family="Arial" font-size="12" text-anchor="middle" fill="#666">May 15, 2025 • City</text> <rect x="430" y="320" width="100" height="30" fill="#4CAF50" rx="5"/> <text x="480" y="340" font-family="Arial" font-size="12" text-anchor="middle" fill="#fff">View Details</text> <rect x="590" y="140" width="190" height="220" fill="#fff" stroke="#ccc"/> <rect x="600" y="150" width="170" height="100" fill="#eee" stroke="#ddd"/> <text x="685" y="205" font-family="Arial" font-size="14" text-anchor="middle" fill="#999">Event Image</text> <text x="685" y="280" font-family="Arial" font-size="16" text-anchor="middle" font-weight="bold" fill="#333">Event Title</text> <text x="685" y="305" font-family="Arial" font-size="12" text-anchor="middle" fill="#666">June 2, 2025 • City</text> <rect x="635" y="320" width="100" height="30" fill="#4CAF50" rx="5"/> <text x="685" y="340" font-family="Arial" font-size="12" text-anchor="middle" fill="#fff">View Details</text> <!-- Event Cards - Second Row --> <rect x="180" y="370" width="190" height="220" fill="#fff" stroke="#ccc"/> <rect x="190" y="380" width="170" height="100" fill="#eee" stroke="#ddd"/> <text x="275" y="435" font-family="Arial" font-size="14" text-anchor="middle" fill="#999">Event Image</text> <text x="275" y="510" font-family="Arial" font-size="16" text-anchor="middle" font-weight="bold" fill="#333">Event Title</text> <text x="275" y="535" font-family="Arial" font-size="12" text-anchor="middle" fill="#666">June 17, 2025 • City</text> <rect x="225" y="550" width="100" height="30" fill="#4CAF50" rx="5"/> <text x="275" y="570" font-family="Arial" font-size="12" text-anchor="middle" fill="#fff">View Details</text> <rect x="385" y="370" width="190" height="220" fill="#fff" stroke="#ccc"/> <rect x="395" y="380" width="170" height="100" fill="#eee" stroke="#ddd"/> <text x="480" y="435" font-family="Arial" font-size="14" text-anchor="middle" fill="#999">Event Image</text> <text x="480" y="510" font-family="Arial" font-size="16" text-anchor="middle" font-weight="bold" fill="#333">Event Title</text> <text x="480" y="535" font-family="Arial" font-size="12" text-anchor="middle" fill="#666">July 3, 2025 • City</text> <rect x="430" y="550" width="100" height="30" fill="#4CAF50" rx="5"/> <text x="480" y="570" font-family="Arial" font-size="12" text-anchor="middle" fill="#fff">View Details</text> <rect x="590" y="370" width="190" height="220" fill="#fff" stroke="#ccc"/> <rect x="600" y="380" width="170" height="100" fill="#eee" stroke="#ddd"/> <text x="685" y="435" font-family="Arial" font-size="14" text-anchor="middle" fill="#999">Event Image</text> <text x="685" y="510" font-family="Arial" font-size="16" text-anchor="middle" font-weight="bold" fill="#333">Event Title</text> <text x="685" y="535" font-family="Arial" font-size="12" text-anchor="middle" fill="#666">July 21, 2025 • City</text> <rect x="635" y="550" width="100" height="30" fill="#4CAF50" rx="5"/> <text x="685" y="570" font-family="Arial" font-size="12" text-anchor="middle" fill="#fff">View Details</text> </svg>